<?xml version="1.0" standalone="no"?>
<!DOCTYPE svg PUBLIC "-//W3C//DTD SVG 20010904//EN"
 "http://www.w3.org/TR/2001/REC-SVG-20010904/DTD/svg10.dtd">
<svg version="1.0" xmlns="http://www.w3.org/2000/svg"
 width="1024.000000pt" height="1024.000000pt" viewBox="0 0 1024.000000 1024.000000"
 preserveAspectRatio="xMidYMid meet">
<metadata>
Created by potrace 1.14, written by Peter Selinger 2001-2017
</metadata>
<g transform="translate(0.000000,1024.000000) scale(0.100000,-0.100000)"
fill="#000000" stroke="none">
<path d="M0 5120 l0 -5120 5120 0 5120 0 0 5120 0 5120 -5120 0 -5120 0 0
-5120z m2615 2553 c130 -240 376 -553 587 -745 263 -240 617 -478 933 -629
257 -122 549 -224 781 -273 120 -25 330 -53 338 -45 2 2 -3 38 -11 79 -22 107
-21 376 1 500 87 485 418 873 861 1009 173 52 334 70 482 52 298 -36 565 -170
773 -387 53 -55 81 -77 95 -75 11 2 82 21 158 43 172 49 323 109 494 197 73
38 133 65 133 59 0 -13 -45 -100 -92 -176 -74 -122 -190 -262 -307 -373 l-115
-109 134 36 c155 41 293 91 403 145 42 22 77 36 77 33 0 -14 -64 -110 -118
-178 -83 -106 -284 -302 -390 -381 l-92 -70 7 -85 c12 -130 8 -552 -6 -675
-37 -324 -144 -720 -273 -1004 -204 -451 -472 -824 -838 -1167 -904 -845
-2151 -1118 -3370 -737 -247 77 -590 225 -807 349 -108 62 -383 237 -399 255
-17 19 -17 19 27 4 171 -61 378 -94 639 -102 476 -14 857 56 1310 241 117 48
298 140 403 204 31 19 57 35 57 36 0 1 -78 0 -173 -2 -484 -10 -876 132 -1218
437 -160 143 -333 392 -364 523 l-7 27 71 -30 c129 -54 235 -72 431 -73 129
-1 205 4 288 18 62 10 111 21 108 23 -2 2 -37 9 -78 14 -322 44 -624 193 -849
418 -58 58 -131 142 -162 187 -139 200 -229 451 -244 679 l-6 100 49 -43 c175
-155 448 -270 729 -307 l50 -7 -60 38 c-110 69 -199 142 -296 241 -123 125
-170 185 -241 303 -224 377 -258 828 -93 1266 57 154 116 261 135 249 5 -3 29
-44 55 -92z"/>
</g>
</svg>
